<svg
  xmlns="http://www.w3.org/2000/svg"
  width="100px"
  height="100px"
  viewBox="0 0 64 64"
  fill="none"
>
  <g fill="#000000">
    <!-- Pot -->
    <path
      d="M50 38H14c-2.209 0-4-1.791-4-4V16c0-2.209 1.791-4 4-4h36c2.209 0 4 1.791 4 4v18c0 2.209-1.791 4-4 4z"
      fill="#FFC107"
    />
    <!-- Lid -->
    <path
      d="M32 8c-1.104 0-2 0.896-2 2s0.896 2 2 2 2-0.896 2-2-0.896-2-2-2z"
      fill="#FF5722"
    />
    <!-- Spoon -->
    <path
      d="M34 38c0.553 0 1-0.447 1-1v-4c0-0.553-0.447-1-1-1s-1 0.447-1 1v4c0 0.553 0.447 1 1 1zM30 42c0.553 0 1-0.447 1-1v-6c0-0.553-0.447-1-1-1s-1 0.447-1 1v6c0 0.553 0.447 1 1 1z"
      fill="#607D8B"
    />
    <!-- Handle -->
    <path
      d="M48 48H16c-1.104 0-2 0.896-2 2s0.896 2 2 2h32c1.104 0 2-0.896 2-2s-0.896-2-2-2z"
      fill="#795548"
    />
  </g>
</svg>
